<?xml version="1.0" standalone="no"?>
<!DOCTYPE svg PUBLIC "-//W3C//DTD SVG 20010904//EN"
 "http://www.w3.org/TR/2001/REC-SVG-20010904/DTD/svg10.dtd">
<svg version="1.0" xmlns="http://www.w3.org/2000/svg"
 width="300.000000pt" height="65.000000pt" viewBox="0 0 300.000000 65.000000"
 preserveAspectRatio="xMidYMid meet">
<metadata>
Created by potrace 1.10, written by Peter Selinger 2001-2011
</metadata>
<g transform="translate(0.000000,65.000000) scale(0.050000,-0.050000)"
fill="#000000" stroke="none">
<path d="M363 1150 c-48 -43 -98 -70 -130 -70 -44 0 -53 -9 -53 -53 0 -32 -27
-82 -70 -130 -81 -90 -85 -113 -28 -185 51 -65 114 -39 76 32 -18 34 -10 52
53 117 50 52 70 87 61 110 -9 24 -4 30 18 22 19 -8 62 16 112 61 67 61 87 70
117 51 62 -38 90 13 37 69 -59 63 -103 58 -193 -24z"/>
<path d="M703 1173 c-53 -56 -12 -122 46 -74 23 19 44 10 107 -48 43 -39 89
-71 101 -71 13 0 23 -10 23 -23 0 -12 32 -57 70 -100 57 -63 67 -85 51 -115
-35 -66 34 -103 81 -44 56 69 47 126 -33 203 -51 50 -69 82 -63 114 10 52 -17
76 -76 69 -25 -4 -67 22 -109 65 -80 83 -137 90 -198 24z"/>
<path d="M420 900 c0 -40 10 -60 30 -60 17 0 30 14 30 30 0 24 30 30 148 30
113 0 150 -7 159 -30 20 -52 53 -33 53 30 l0 60 -210 0 -210 0 0 -60z"/>
<path d="M1632 891 c-42 -16 -87 -39 -100 -52 -17 -19 -13 -22 18 -11 103 37
230 38 270 2 111 -101 -36 -434 -169 -383 -66 25 -21 225 70 310 58 54 41 72
-52 54 -101 -19 -227 -140 -242 -233 -45 -282 520 -251 614 34 76 230 -137
375 -409 279z"/>
<path d="M3813 856 c-7 -25 -13 -64 -13 -87 0 -38 -10 -40 -125 -33 -115 7
-131 3 -203 -54 -75 -60 -192 -85 -192 -42 0 94 -247 137 -393 67 -70 -33
-127 -115 -127 -184 0 -45 -124 -84 -264 -82 l-86 1 70 54 c38 30 106 87 150
128 l80 73 -56 22 c-73 27 -140 27 -168 -1 -17 -17 -40 -17 -87 0 -116 40
-171 29 -199 -39 -32 -77 -19 -90 57 -50 181 93 168 16 -15 -89 -124 -71 -150
-109 -87 -128 92 -26 181 -34 193 -15 8 13 36 13 85 0 87 -24 172 -11 272 43
41 22 75 31 75 19 0 -39 145 -84 243 -74 110 10 188 55 233 135 55 96 144 94
144 -3 0 -101 66 -149 175 -128 41 8 93 13 115 11 140 -13 247 -3 307 28 82
43 73 60 -15 30 -82 -29 -92 -17 -66 76 12 42 37 132 57 200 40 143 43 137
-65 155 -75 12 -84 9 -95 -33z m-725 -253 c-2 -115 -96 -211 -139 -142 -22 36
11 159 53 201 58 58 88 37 86 -59z m672 36 c0 -99 -101 -205 -160 -169 -33 21
-23 101 21 157 52 66 139 73 139 12z"/>
<path d="M4188 825 c-8 -41 -40 -151 -71 -244 -62 -182 -55 -212 43 -186 55
14 68 14 201 -6 106 -16 297 19 351 64 37 29 37 30 -2 17 -22 -7 -64 -18 -94
-24 l-54 -11 39 77 c47 92 49 125 8 184 -35 50 -182 63 -225 20 -38 -38 -44
-10 -15 75 34 100 28 109 -79 109 -86 0 -89 -2 -102 -75z m258 -233 c-9 -117
-166 -213 -166 -101 0 93 56 172 116 165 46 -5 53 -15 50 -64z"/>
<path d="M5453 887 c-7 -8 -13 -30 -13 -51 0 -21 -23 -108 -52 -194 l-51 -156
-100 -23 c-133 -31 -247 -29 -274 4 -30 35 -9 53 62 53 81 0 191 55 206 103
48 151 -337 159 -442 10 -153 -219 145 -328 499 -182 31 13 36 9 26 -17 -17
-46 15 -59 106 -44 71 12 82 22 103 92 29 97 64 91 77 -14 14 -107 186 -117
311 -17 38 30 37 31 -11 17 -90 -25 -108 -20 -109 32 -1 36 -13 52 -46 56 -62
9 -56 28 19 64 122 58 137 120 28 120 -68 0 -92 -8 -92 -30 0 -38 -71 -110
-109 -110 -24 0 -22 19 10 113 59 171 55 187 -48 187 -47 0 -92 -6 -100 -13z
m-377 -230 c-6 -44 -106 -133 -127 -113 -6 7 2 44 19 84 35 84 120 107 108 29z"/>
<path d="M280 630 l0 -210 60 0 c63 0 81 28 30 47 -23 9 -30 47 -30 163 0 116
7 154 30 163 51 19 33 47 -30 47 l-60 0 0 -210z"/>
<path d="M870 820 c-7 -11 2 -20 19 -20 26 0 31 -29 31 -170 0 -141 -5 -170
-31 -170 -17 0 -26 -9 -19 -20 7 -11 34 -20 61 -20 49 0 49 1 49 210 0 209 0
210 -49 210 -27 0 -54 -9 -61 -20z"/>
<path d="M84 554 c-62 -65 -55 -116 25 -193 44 -42 71 -90 75 -129 5 -53 13
-61 56 -56 36 4 70 -15 119 -65 79 -81 155 -93 211 -31 41 45 5 123 -37 81
-31 -31 -42 -27 -133 49 -46 39 -92 65 -102 59 -10 -6 -18 4 -18 22 0 19 -32
70 -71 113 -59 65 -67 84 -47 108 49 59 -25 98 -78 42z"/>
<path d="M1105 577 c-16 -16 -16 -32 0 -58 19 -30 10 -50 -51 -117 -44 -49
-68 -93 -61 -112 8 -22 -2 -30 -37 -30 -28 0 -73 -26 -107 -61 -42 -44 -71
-58 -102 -50 -60 15 -79 -23 -36 -70 52 -58 113 -48 190 32 49 50 83 69 119
65 43 -5 51 3 56 56 4 39 31 87 75 129 38 37 69 86 69 109 0 59 -85 137 -115
107z"/>
<path d="M433 407 c-74 -74 -14 -107 197 -107 l210 0 0 60 c0 63 -33 82 -53
30 -17 -44 -307 -44 -307 0 0 31 -24 40 -47 17z"/>
</g>
</svg>
